<svg width="24" height="25" viewBox="0 0 24 25" fill="none" xmlns="http://www.w3.org/2000/svg">
<g clip-path="url(#clip0_956_33223)">
<path d="M12.0004 24.5008C18.628 24.5008 24.0008 19.128 24.0008 12.5004C24.0008 5.87276 18.628 0.5 12.0004 0.5C5.37276 0.5 0 5.87276 0 12.5004C0 19.128 5.37276 24.5008 12.0004 24.5008Z" fill="#E60000"/>
<path d="M12.0956 19.1506C8.81896 19.1613 5.4092 16.365 5.39457 11.8738C5.38533 8.90356 6.98708 6.04182 9.03525 4.34848C11.0365 2.69439 13.7697 1.63298 16.252 1.62451C16.5714 1.62451 16.9054 1.64991 17.1102 1.71918C14.9396 2.16946 13.2124 4.18915 13.2201 6.48055C13.2199 6.54548 13.2248 6.61034 13.2347 6.67451C16.8662 7.55889 18.5149 9.75331 18.5249 12.7821C18.5349 15.8108 16.1411 19.1367 12.0956 19.1506Z" fill="white"/>
</g>
<defs>
<clipPath id="clip0_956_33223">
<rect width="24" height="24" fill="white" transform="translate(0 0.5)"/>
</clipPath>
</defs>
</svg>
